<?xml version="1.0" encoding="UTF-8"?>
<svg width="84px" height="84px" viewBox="0 0 84 84" version="1.1" xmlns="http://www.w3.org/2000/svg" xmlns:xlink="http://www.w3.org/1999/xlink">
    <!-- Generator: Sketch 49.3 (51167) - http://www.bohemiancoding.com/sketch -->
    <title>Notebox</title>
    <desc>Created with Sketch.</desc>
    <defs></defs>
    <g id="Notebox" stroke="none" stroke-width="1" fill="none" fill-rule="evenodd" opacity="0.337805707">
        <g id="70--Notes--(Outline)-Copy-2" transform="translate(15.000000, 16.000000)" fill="#0D1C29" fill-rule="nonzero">
            <path d="M21.2986339,27.6077293 L27.7512337,26.2239294 C28.9392479,25.9691524 29.6957862,24.7995389 29.4410092,23.6115247 C29.1862322,22.4235104 28.0166188,21.6669722 26.8286045,21.9217492 L20.3760047,23.3055491 C19.1879905,23.5603262 18.4314522,24.7299396 18.6862292,25.9179538 C18.9410062,27.1059681 20.1106196,27.8625063 21.2986339,27.6077293 Z" id="Stroke-508"></path>
            <path d="M36.3562526,24.3810968 L40.6594525,23.4592968 C41.847526,23.2047964 42.6043366,22.0353591 42.3498362,20.8472856 C42.0953357,19.6592121 40.9258985,18.9024015 39.737825,19.1569019 L35.4346251,20.0787019 C34.2465516,20.3332023 33.489741,21.5026396 33.7442414,22.6907131 C33.9987418,23.8787866 35.1681791,24.6355972 36.3562526,24.3810968 Z" id="Stroke-509"></path>
            <path d="M41.1193641,25.6102691 L34.6667643,26.994069 C33.47875,27.248846 32.7222118,28.4184595 32.9769888,29.6064737 C33.2317658,30.794488 34.4013792,31.5510262 35.5893935,31.2962492 L42.0419933,29.9124493 C43.2300075,29.6576722 43.9865458,28.4880588 43.7317688,27.3000446 C43.4769918,26.1120303 42.3073784,25.3554921 41.1193641,25.6102691 Z" id="Stroke-510"></path>
            <path d="M26.0617454,28.8369016 L21.7585455,29.7587016 C20.570472,30.013202 19.8136614,31.1826393 20.0681618,32.3707128 C20.3226623,33.5587863 21.4920995,34.3155969 22.680173,34.0610965 L26.9833729,33.1392965 C28.1714464,32.8847961 28.928257,31.7153588 28.6737566,30.5272853 C28.4192562,29.3392118 27.2498189,28.5824012 26.0617454,28.8369016 Z" id="Stroke-511"></path>
            <path d="M42.5017335,32.063867 L40.3501336,32.525867 C39.1621846,32.7809481 38.4059457,33.9507551 38.6610268,35.1387041 C38.9161078,36.3266531 40.0859148,37.082892 41.2738639,36.8278109 L43.4254638,36.3658109 C44.6134128,36.1107298 45.3696517,34.9409228 45.1145706,33.7529738 C44.8594895,32.5650248 43.6896825,31.808786 42.5017335,32.063867 Z" id="Stroke-512"></path>
            <path d="M31.7468726,34.3686056 L23.1426728,36.2122055 C21.9546126,36.4667682 21.1978633,37.6362451 21.4524259,38.8243053 C21.7069886,40.0123655 22.8764654,40.7691148 24.0645256,40.5145521 L32.6687254,38.6709522 C33.8567856,38.4163896 34.6135349,37.2469127 34.3589723,36.0588525 C34.1044096,34.8707923 32.9349328,34.114043 31.7468726,34.3686056 Z" id="Stroke-513"></path>
            <path d="M20.5693537,45.2019637 C20.8876505,46.6871769 19.6408071,48.0404565 18.1345477,47.8446159 L2.07674816,45.756816 C0.873632342,45.6003895 0.0242508487,44.499497 0.178178099,43.2960589 L4.64417796,8.37985995 C4.7985534,7.1729178 5.90333352,6.32049955 7.10995906,6.47733041 L25.4073585,8.85553033 C27.8589188,9.17417127 28.0021951,12.6701269 25.5849307,13.188309 L14.2301438,15.6224024 L20.5693537,45.2019637 Z M9.46684526,14.3933945 C9.21224351,13.2053903 9.96887769,12.0359164 11.1568681,11.7812502 L12.1469133,11.5690171 L8.72893322,11.1247659 L4.82116229,41.6766045 L15.6146754,43.0799535 L9.46684526,14.3933945 Z" id="Stroke-514"></path>
            <path d="M19.7659867,48.0564654 C17.3144905,47.7376348 17.1714405,44.2417442 19.5886917,43.723687 L39.9034911,39.3698871 C41.388832,39.0515538 42.7421807,40.2986243 42.5461173,41.8049884 L41.6507173,48.6843882 C41.4939073,49.8891671 40.3901806,50.7387555 39.1853862,50.5820653 L19.7659867,48.0564654 Z M37.5714416,45.9351074 L37.78105,44.3246766 L33.025464,45.3438779 L37.5714416,45.9351074 Z" id="Stroke-515"></path>
            <path d="M30.7973203,18.5223376 L33.9345202,11.7287378 C34.4439135,10.6256477 33.9626271,9.31847171 32.8595371,8.80907844 C31.756447,8.29968517 30.449271,8.78097151 29.9398777,9.88406156 L26.8026778,16.6776614 C26.2932846,17.7807514 26.7745709,19.0879274 27.877661,19.5973207 C28.980751,20.106714 30.287927,19.6254276 30.7973203,18.5223376 Z" id="Stroke-516"></path>
            <path d="M35.3999989,6.5999998 C35.3999989,5.38402629 34.4159725,4.39999987 33.1999989,4.39999987 C31.9840254,4.39999987 30.999999,5.38402629 30.999999,6.5999998 C30.999999,7.81597331 31.9840254,8.79999973 33.1999989,8.79999973 C34.4159725,8.79999973 35.3999989,7.81597331 35.3999989,6.5999998 Z M39.7999987,6.5999998 C39.7999987,10.2460261 36.8460253,13.1999996 33.1999989,13.1999996 C29.5539726,13.1999996 26.5999991,10.2460261 26.5999991,6.5999998 C26.5999991,2.95397346 29.5539726,0 33.1999989,0 C36.8460253,0 39.7999987,2.95397346 39.7999987,6.5999998 Z" id="Stroke-517"></path>
            <path d="M43.4248956,4.86678293 C44.6128818,4.6123536 45.7822138,5.36906921 46.0367817,6.55702579 L52.9513815,38.8244248 C53.2059704,40.0124794 52.449247,41.181973 51.2611924,41.4365619 L18.9937934,48.3511617 C17.8057388,48.6057506 16.6362452,47.8490272 16.3816563,46.6609726 L9.46705649,14.3935736 C9.21247108,13.2055353 9.9691705,12.0360539 11.1572038,11.7814454 L29.8814033,7.76864555 C30.5552656,7.62422951 31.2578632,7.80392917 31.7796391,8.25414726 C32.1911452,8.60921824 32.6818465,8.79999973 33.2002189,8.79999973 C34.0564339,8.79999973 34.8215996,8.29949856 35.1850379,7.52249253 C35.4767891,6.89874853 36.043761,6.44759003 36.7170958,6.30338289 L43.4248956,4.86678293 Z M38.5803198,10.4041174 C37.3665562,12.1254127 35.3833315,13.1999996 33.2002189,13.1999996 C32.0028447,13.1999996 30.8583592,12.8716906 29.8575679,12.2736634 L14.2303477,15.6227469 L20.2230085,43.5878615 L48.1880813,37.5952097 L42.1953757,9.62988597 L38.5803198,10.4041174 Z" id="Stroke-518"></path>
        </g>
    </g>
</svg>