<?xml version="1.0" encoding="UTF-8"?>
<svg width="84px" height="84px" viewBox="0 0 84 84" version="1.1" xmlns="http://www.w3.org/2000/svg" xmlns:xlink="http://www.w3.org/1999/xlink">
    <!-- Generator: Sketch 49.3 (51167) - http://www.bohemiancoding.com/sketch -->
    <title>Chatbox</title>
    <desc>Created with Sketch.</desc>
    <defs></defs>
    <g id="Chatbox" stroke="none" stroke-width="1" fill="none" fill-rule="evenodd" opacity="0.337805707">
        <g id="76--Messages--(Outline)-Copy-4" transform="translate(15.000000, 15.000000)" fill="#0D1C29" fill-rule="nonzero">
            <path d="M21.9089194,22.6474735 L11.3232811,22.6474735 C10.072471,22.6474735 9.058489,23.6614555 9.058489,24.9122656 C9.058489,26.1630758 10.072471,27.1770577 11.3232811,27.1770577 L21.9089194,27.1770577 C23.1597296,27.1770577 24.1737116,26.1630758 24.1737116,24.9122656 C24.1737116,23.6614555 23.1597296,22.6474735 21.9089194,22.6474735 Z" id="Stroke-552"></path>
            <path d="M18.1183369,31.706642 L11.3239606,31.706642 C10.0731504,31.706642 9.05916844,32.7206239 9.05916844,33.9714341 C9.05916844,35.2222442 10.0731504,36.2362262 11.3239606,36.2362262 L18.1183369,36.2362262 C19.369147,36.2362262 20.383129,35.2222442 20.383129,33.9714341 C20.383129,32.7206239 19.369147,31.706642 18.1183369,31.706642 Z" id="Stroke-553"></path>
            <path d="M33.9718817,11.323513 L29.4422974,11.323513 C28.1914873,11.323513 27.1775053,12.3374949 27.1775053,13.5883051 C27.1775053,14.8391152 28.1914873,15.8530972 29.4422974,15.8530972 L33.9718817,15.8530972 C35.2226918,15.8530972 36.2366738,14.8391152 36.2366738,13.5883051 C36.2366738,12.3374949 35.2226918,11.323513 33.9718817,11.323513 Z" id="Stroke-554"></path>
            <path d="M40.766258,15.8530972 L43.0310501,15.8530972 C44.2818602,15.8530972 45.2958422,14.8391152 45.2958422,13.5883051 C45.2958422,12.3374949 44.2818602,11.323513 43.0310501,11.323513 L40.766258,11.323513 C39.5154478,11.323513 38.5014659,12.3374949 38.5014659,13.5883051 C38.5014659,14.8391152 39.5154478,15.8530972 40.766258,15.8530972 Z" id="Stroke-556"></path>
            <path d="M38.5014659,24.9122656 L43.0310501,24.9122656 C44.2818602,24.9122656 45.2958422,23.8982837 45.2958422,22.6474735 C45.2958422,21.3966634 44.2818602,20.3826814 43.0310501,20.3826814 L38.5014659,20.3826814 C37.2506557,20.3826814 36.2366738,21.3966634 36.2366738,22.6474735 C36.2366738,23.8982837 37.2506557,24.9122656 38.5014659,24.9122656 Z" id="Stroke-557"></path>
            <path d="M29.4422974,24.9122656 L31.7070895,24.9122656 C32.9578997,24.9122656 33.9718817,23.8982837 33.9718817,22.6474735 C33.9718817,21.3966634 32.9578997,20.3826814 31.7070895,20.3826814 L29.4422974,20.3826814 C28.1914873,20.3826814 27.1775053,21.3966634 27.1775053,22.6474735 C27.1775053,23.8982837 28.1914873,24.9122656 29.4422974,24.9122656 Z" id="Stroke-558"></path>
            <path d="M26.5859669,42.2929881 C25.1923054,43.8208609 22.6483264,42.8351755 22.6479211,40.7671601 L22.6458306,30.0992281 C19.7535696,26.8237681 18.1183369,22.5973417 18.1183369,18.1187952 C18.1183369,8.11229877 26.2301773,0.000458333333 36.2366738,0.000458333333 C46.2431702,0.000458333333 54.3550107,8.11229877 54.3550107,18.1187952 C54.3550107,28.1252917 46.2431702,36.2371321 36.2366738,36.2371321 C34.9605421,36.2371321 33.6996343,36.1040243 32.4690511,35.8433556 L26.5859669,42.2929881 Z M30.0361007,31.7892785 C30.621285,31.1477402 31.5217544,30.8972654 32.3541565,31.1444875 C33.6057948,31.5162221 34.9089575,31.7075479 36.2366738,31.7075479 C43.7415499,31.7075479 49.8254264,25.6236714 49.8254264,18.1187952 C49.8254264,10.6139191 43.7415499,4.53004255 36.2366738,4.53004255 C28.7317976,4.53004255 22.6479211,10.6139191 22.6479211,18.1187952 C22.6479211,21.7239023 24.0554566,25.1017836 26.5278383,27.6241326 C26.9426987,28.0473774 27.1751244,28.6163788 27.1752405,29.2090384 L27.1763605,34.9244152 L30.0361007,31.7892785 Z" id="Stroke-576"></path>
            <path d="M30.0361007,31.7883726 C30.6220844,31.1459579 31.5241272,30.8957505 32.3573063,31.1445196 C33.6012804,31.5159431 34.903495,31.706642 36.2366738,31.706642 C38.260797,31.706642 40.2309888,31.2488116 42.0579506,30.379499 C43.5608258,29.6643946 45.2958422,30.760247 45.2958422,32.4245811 L45.2958422,38.5010183 C45.2958422,42.2544237 42.2548713,45.2953946 38.5014659,45.2953946 L14.7211487,45.2953946 L8.60621002,53.4486462 C7.30031418,55.1898407 4.52958422,54.266264 4.52958422,52.089771 L4.52958422,44.9090209 C1.89024343,43.9766277 0,41.4602448 0,38.5010183 L0,20.3826814 C0,16.629276 3.04097091,13.5883051 6.79437633,13.5883051 L20.5643124,13.5883051 C21.9433312,13.5883051 23.0022586,14.8103151 22.8060671,16.1753066 C22.7006903,16.90846 22.6479211,17.5309501 22.6479211,18.1178893 C22.6479211,21.7242731 24.0547235,25.1003951 26.5284659,27.626132 C26.9429414,28.0493193 27.1751244,28.618048 27.1752405,29.2103972 L27.1763603,34.9235095 L30.0361007,31.7883726 Z M22.6458306,30.1001784 C19.7529536,26.8224153 18.1183369,22.5977113 18.1183369,18.1178893 L6.79437633,18.1178893 C5.54259119,18.1178893 4.52958422,19.1308963 4.52958422,20.3826814 L4.52958422,38.5010183 C4.52958422,39.7528034 5.54259119,40.7658104 6.79437633,40.7658104 C8.04518648,40.7658104 9.05916844,41.7797924 9.05916844,43.0306025 L9.05916844,45.2953946 L11.776919,41.6717273 C12.2046349,41.1014394 12.8758928,40.7658104 13.5887527,40.7658104 L22.6479211,40.7658104 L22.6458306,30.1001784 Z M38.5014659,40.7658104 C39.753251,40.7658104 40.766258,39.7528034 40.766258,38.5010183 L40.766258,35.6534758 C39.296762,36.0377012 37.7786899,36.2362262 36.2366738,36.2362262 C34.9578234,36.2362262 33.69658,36.1036884 32.4683004,35.8432726 L27.978168,40.7658104 L38.5014659,40.7658104 Z M22.6479211,40.7658104 C22.6483265,42.8342696 25.1923054,43.8199549 26.5859669,42.2920822 L27.978168,40.7658104 L22.6479211,40.7658104 Z" id="Stroke-577"></path>
        </g>
    </g>
</svg>