<?xml version="1.0" encoding="UTF-8"?>
<svg width="57px" height="58px" viewBox="0 0 57 58" version="1.1" xmlns="http://www.w3.org/2000/svg" xmlns:xlink="http://www.w3.org/1999/xlink">
    <!-- Generator: Sketch 41.2 (35397) - http://www.bohemiancoding.com/sketch -->
    <title>11</title>
    <desc>Created with Sketch.</desc>
    <defs></defs>
    <g id="Page-1" stroke="none" stroke-width="1" fill="none" fill-rule="evenodd">
        <g id="Homepage" transform="translate(-225.000000, -1959.000000)" fill="#FFFFFF">
            <g id="footer" transform="translate(0.000000, 1846.000000)">
                <path d="M235.194477,132.654649 C238.708391,134.80074 242.352591,136.282202 245.889577,137.717649 C248.387534,138.731338 250.97072,139.779606 253.476277,141.051142 C259.643406,144.180699 260.91912,150.346695 262.269749,156.87482 C262.462463,157.806553 262.662234,158.767148 262.875034,159.710317 C260.946263,160.716655 258.903491,161.398982 256.809691,161.746136 C255.94682,155.861947 254.544349,147.51147 249.430634,143.685426 C245.288906,140.586909 239.021077,140.008864 233.215763,139.84822 C233.324606,138.603095 233.54392,137.358787 233.884291,136.128365 C234.218691,134.919725 234.66112,133.760368 235.194477,132.654649 M240.919177,125.531053 C243.268663,128.963656 245.803534,131.012544 247.549091,132.135688 C249.703963,133.522397 251.806449,134.265715 253.54522,134.265715 C253.743091,134.265715 253.936077,134.256185 254.123906,134.236581 C255.550263,134.089551 256.589291,133.366382 257.050177,132.200218 C257.722506,130.497395 257.424749,127.224347 252.506191,121.18496 C252.826477,121.169441 253.147306,121.159094 253.468677,121.159094 C255.137691,121.159094 256.81702,121.369837 258.474091,121.789689 C258.714577,122.879343 258.968363,123.933874 259.215634,124.955731 C259.995449,128.178952 260.732377,131.223831 260.830634,134.63574 C261.001091,140.541711 265.488891,145.422829 272.88532,147.810158 C271.420691,152.416548 268.431991,156.291601 264.357034,158.862717 C264.18712,158.088905 264.022634,157.307196 263.864391,156.542913 C262.494763,149.923303 261.07872,143.078248 254.211577,139.593368 C251.644677,138.291065 249.029734,137.229455 246.500291,136.203241 C242.840349,134.717696 239.36362,133.304303 235.963434,131.212123 C237.242677,129.028458 238.914949,127.104545 240.919177,125.531053 M243.478749,123.814072 C245.700934,122.553427 248.09032,121.738228 250.542134,121.376371 C256.255163,128.094274 255.814091,130.894103 255.535877,131.598757 C255.303534,132.186876 254.77262,132.527768 253.95752,132.611629 C250.28862,132.992273 245.209106,128.889868 242.242391,124.580805 C242.64492,124.313701 243.054506,124.054765 243.478749,123.814072 M271.219834,131.536405 C273.758234,136.039603 274.491634,141.227305 273.320149,146.234216 C263.75392,143.147406 262.530863,137.096856 262.458663,134.588364 C262.355249,131.00492 261.598777,127.879447 260.798063,124.570186 C260.622177,123.842661 260.444391,123.093898 260.269049,122.335333 C264.915906,123.97172 268.772363,127.195758 271.219834,131.536405 M252.619649,161.992547 C252.32542,158.367445 251.93972,153.884668 248.239877,151.742389 C244.766134,149.731348 239.619034,150.046373 236.988891,153.531525 C236.556234,152.927069 236.15072,152.298652 235.78022,151.641647 C234.00372,148.490307 233.115334,145.002977 233.140034,141.477256 C237.764363,141.589434 244.437977,141.988321 248.456749,144.995081 C253.033577,148.41897 254.368734,156.332171 255.192791,161.94626 C254.338877,162.017324 253.480077,162.031755 252.619649,161.992547 M238.037963,154.878481 C239.693949,152.331598 243.775149,151.043181 247.425591,153.157143 C250.310877,154.827838 250.700377,158.515291 250.97452,161.855319 C249.997649,161.730616 249.022677,161.535393 248.056391,161.266383 C244.099234,160.164748 240.645306,157.944053 238.037963,154.878481 M234.36282,152.445954 C237.253806,157.573484 241.962277,161.265294 247.620749,162.840419 C249.574491,163.38443 251.560263,163.65344 253.53382,163.65344 C257.277091,163.65344 260.975577,162.685221 264.322834,160.786358 C269.434377,157.88633 273.114677,153.163133 274.684891,147.486692 C276.255377,141.810251 275.52822,135.860172 272.637234,130.73237 C269.746249,125.604568 265.037777,121.91303 259.379306,120.337905 C253.720291,118.762235 247.789034,119.491939 242.676949,122.391966 C237.565406,125.291994 233.885377,130.015191 232.315163,135.691632 C230.744406,141.368073 231.471834,147.318153 234.36282,152.445954 Z M282,141.589135 C282,125.825086 269.2149,113 253.5,113 C246.300357,113 239.426971,115.699903 234.146329,120.602532 L235.252671,121.801369 C240.231214,117.179187 246.711571,114.633665 253.5,114.633665 C268.317014,114.633665 280.371429,126.72578 280.371429,141.589135 C280.371429,147.450452 278.538471,152.988031 275.071514,157.657046 C274.473286,157.310436 273.781957,157.108951 273.042857,157.108951 C270.797871,157.108951 268.971429,158.941106 268.971429,161.193113 C268.971429,161.917916 269.1655,162.618486 269.515643,163.228932 C264.860643,166.705371 259.337343,168.544605 253.5,168.544605 C238.682986,168.544605 226.628571,156.45249 226.628571,141.589135 C226.628571,136.850145 227.871443,132.189844 230.2231,128.111672 L228.813571,127.293751 C226.3186,131.62024 225,136.563437 225,141.589135 C225,157.353184 237.7851,170.17827 253.5,170.17827 C259.737157,170.17827 265.636657,168.198268 270.597557,164.457176 C270.727571,164.555468 270.863557,164.647497 271.006329,164.730542 C271.623286,165.088315 272.327371,165.277275 273.042857,165.277275 C275.287843,165.277275 277.114286,163.44512 277.114286,161.193113 C277.114286,160.273904 276.806214,159.427666 276.293486,158.74425 C280.025629,153.767834 282,147.852878 282,141.589135 Z M273.042857,163.64361 C272.613186,163.64361 272.190843,163.530343 271.821971,163.316333 C271.068214,162.878783 270.6,162.065218 270.6,161.193113 C270.6,159.842072 271.695757,158.742616 273.042857,158.742616 C274.389957,158.742616 275.485714,159.842072 275.485714,161.193113 C275.485714,162.544154 274.389957,163.64361 273.042857,163.64361 Z M230.971429,125.245516 L230.971429,125.79715 L232.6,125.79715 L232.6,125.245516 C232.700157,125.169551 232.788643,125.080516 232.864371,124.980318 L233.414286,124.980318 L233.414286,123.346653 L232.864371,123.346653 C232.788643,123.246183 232.700157,123.157148 232.6,123.081182 L232.6,122.529821 L230.971429,122.529821 L230.971429,123.081182 C230.871271,123.157148 230.782786,123.246183 230.707057,123.346653 L230.157143,123.346653 L230.157143,124.980318 L230.707057,124.980318 C230.782786,125.080516 230.871271,125.169551 230.971429,125.245516 Z" id="11"></path>
            </g>
        </g>
    </g>
</svg>