<?xml version="1.0" encoding="UTF-8"?>
<svg width="44px" height="43px" viewBox="0 0 44 43" version="1.1" xmlns="http://www.w3.org/2000/svg" xmlns:xlink="http://www.w3.org/1999/xlink">
    <!-- Generator: Sketch 41.2 (35397) - http://www.bohemiancoding.com/sketch -->
    <title>logo</title>
    <desc>Created with Sketch.</desc>
    <defs></defs>
    <g id="Page-1" stroke="none" stroke-width="1" fill="none" fill-rule="evenodd">
        <g id="Homepage" transform="translate(-30.000000, -35.000000)" fill="#0A1721">
            <g id="logo" transform="translate(30.000000, 35.000000)">
                <path d="M8.32732686,14.7809633 C10.992736,16.3948967 13.7569707,17.5090062 16.4398802,18.588511 C18.3346555,19.3508395 20.2940791,20.1391729 22.1946192,21.095411 C26.8725707,23.4489443 27.8402382,28.0859824 28.8647304,32.9953538 C29.0109099,33.696049 29.1624425,34.418449 29.3238577,35.1277443 C27.8608269,35.8845443 26.3113236,36.3976776 24.7231137,36.658749 C24.0685999,32.2336395 23.0047833,25.9537967 19.125878,23.0764824 C15.984253,20.7462919 11.2299175,20.3115824 6.82641287,20.1907729 C6.90897343,19.2543967 7.07532988,18.3186348 7.33351179,17.3933157 C7.5871642,16.4843776 7.92275951,15.6125014 8.32732686,14.7809633 M12.6696831,9.42377762 C14.4518383,12.005211 16.3746141,13.5460443 17.6986715,14.3906871 C19.3332059,15.4335395 20.9280043,15.9925395 22.2469144,15.9925395 C22.3970058,15.9925395 22.5433912,15.9853729 22.6858648,15.97063 C23.7677994,15.8600586 24.5559337,15.316211 24.9055293,14.4392157 C25.4155106,13.1586348 25.1896529,10.6971919 21.4587801,6.1553681 C21.7017264,6.14369667 21.9450845,6.13591571 22.1888544,6.13591571 C23.4548516,6.13591571 24.7286726,6.29440143 25.9856109,6.61014429 C26.1680265,7.42960143 26.3605305,8.22264429 26.5480933,8.99111571 C27.1396058,11.4150871 27.6985882,13.7049395 27.7731191,16.270811 C27.902416,20.7123014 31.3065466,24.3830681 36.916959,26.1784205 C35.8059944,29.6425824 33.538976,32.5567538 30.4479991,34.4903205 C30.319114,33.9083871 30.1943467,33.3205157 30.0743147,32.745749 C29.0354105,27.7675776 27.9612996,22.6198633 22.7523662,19.9991157 C20.8052958,19.0197395 18.8217834,18.2213729 16.9031253,17.4496252 C14.1269491,16.3324443 11.4897465,15.2695252 8.91060386,13.6961348 C9.88094785,12.0539443 11.1494158,10.6070967 12.6696831,9.42377762 M14.6111946,8.13254905 C16.296789,7.18450143 18.1092095,6.57144429 19.968984,6.29931571 C24.3024872,11.3514062 23.9679213,13.4569729 23.7568874,13.9868967 C23.5806484,14.4291824 23.177934,14.6855443 22.5596563,14.748611 C19.7766859,15.0348681 15.9237223,11.9497205 13.6733807,8.70915857 C13.9787107,8.50828714 14.2893937,8.31355857 14.6111946,8.13254905 M35.6536382,13.9400062 C37.5790906,17.3265633 38.1353964,21.2278919 37.2467894,24.9932586 C29.9905188,22.6718729 29.0627934,18.1216538 29.0080275,16.2351824 C28.9295847,13.540311 28.3557785,11.189849 27.7484127,8.70117286 C27.6149982,8.15404905 27.4801424,7.59095381 27.3471396,7.02048714 C30.8719198,8.25110619 33.7971579,10.6756919 35.6536382,13.9400062 M21.5448408,36.8440586 C21.3216596,34.1178586 21.0290946,30.7466586 18.2226531,29.1355919 C15.5877152,27.6232205 11.6834858,27.86013 9.68844379,30.4810824 C9.3602604,30.026511 9.05266568,29.5539205 8.77163034,29.05983 C7.42410194,26.6899157 6.75023479,24.0673252 6.76897048,21.4158633 C10.2766621,21.5002252 15.3387982,21.8002014 18.3871566,24.0613871 C21.858818,26.6362681 22.8715746,32.5872633 23.4966466,36.809249 C22.8489271,36.8626919 22.1975016,36.8735443 21.5448408,36.8440586 M10.4841959,31.4940395 C11.7403106,29.5786967 14.8360229,28.6097633 17.604993,30.1995348 C19.7935686,31.4559538 20.089016,34.2290443 20.2969615,36.7408586 C19.5559753,36.6470776 18.8164303,36.5002633 18.0834737,36.2979586 C15.0818516,35.4694919 12.4619434,33.7994538 10.4841959,31.4940395 M7.69649003,29.6646967 C9.8893892,33.5207729 13.4609057,36.2971395 17.7530256,37.4816871 C19.234998,37.8908014 20.741265,38.0931062 22.2382672,38.0931062 C25.0776506,38.0931062 27.8830626,37.3649729 30.4220573,35.9369633 C34.2993155,33.7560443 37.0909332,30.2040395 38.2819877,25.9351633 C39.4732481,21.6662871 38.9216777,17.1916252 36.7287785,13.3353443 C34.5358794,9.47906333 30.9643629,6.70290143 26.672243,5.51835381 C22.3797113,4.33339667 17.8806753,4.88215857 14.0030053,7.06307762 C10.1257471,9.24399667 7.33433534,12.7960014 6.14328082,17.0648776 C4.95181453,21.3337538 5.50359086,25.8084157 7.69649003,29.6646967 Z M43.8307165,21.5 C43.8307165,9.6449 34.1328356,0 22.2126137,0 C16.7514692,0 11.5378004,2.03041905 7.53227481,5.7173619 L8.37146897,6.61892857 C12.1478427,3.14289048 17.0633875,1.22857143 22.2126137,1.22857143 C33.4517624,1.22857143 42.5953963,10.3222524 42.5953963,21.5 C42.5953963,25.9079095 41.2050435,30.0723571 38.5752527,33.5836143 C38.1214785,33.3229524 37.5970851,33.1714286 37.0364556,33.1714286 C35.3335668,33.1714286 33.9481552,34.5492714 33.9481552,36.2428571 C33.9481552,36.7879333 34.0953642,37.3147857 34.360958,37.7738619 C30.8300012,40.3882619 26.6404129,41.7714286 22.2126137,41.7714286 C10.973465,41.7714286 1.82983107,32.6777476 1.82983107,21.5 C1.82983107,17.936119 2.77258623,14.4314143 4.55638854,11.3644905 L3.48721895,10.7493857 C1.59470846,14.0030524 0.594510908,17.7205048 0.594510908,21.5 C0.594510908,33.3551 10.2923918,43 22.2126137,43 C26.943684,43 31.4186313,41.5109714 35.1816224,38.6975429 C35.2802421,38.7714619 35.3833913,38.8406714 35.4916877,38.9031238 C35.9596682,39.172181 36.4937383,39.3142857 37.0364556,39.3142857 C38.7393444,39.3142857 40.124756,37.9364429 40.124756,36.2428571 C40.124756,35.551581 39.8910746,34.915181 39.5021546,34.4012286 C42.3330967,30.6587952 43.8307165,26.2105476 43.8307165,21.5 Z M37.0364556,38.0857143 C36.710537,38.0857143 36.3901773,38.0005333 36.1103772,37.8395905 C35.5386299,37.5105381 35.1834754,36.8987095 35.1834754,36.2428571 C35.1834754,35.2268286 36.0146399,34.4 37.0364556,34.4 C38.0582713,34.4 38.8894358,35.2268286 38.8894358,36.2428571 C38.8894358,37.2588857 38.0582713,38.0857143 37.0364556,38.0857143 Z M5.12401816,9.20904381 L5.12401816,9.62389143 L6.35933832,9.62389143 L6.35933832,9.20904381 C6.43531051,9.15191524 6.50242957,9.0849581 6.55987195,9.00960571 L6.9769984,9.00960571 L6.9769984,7.78103429 L6.55987195,7.78103429 C6.50242957,7.70547714 6.43531051,7.63852 6.35933832,7.58139143 L6.35933832,7.16674857 L5.12401816,7.16674857 L5.12401816,7.58139143 C5.04804597,7.63852 4.98092691,7.70547714 4.92348452,7.78103429 L4.50635808,7.78103429 L4.50635808,9.00960571 L4.92348452,9.00960571 C4.98092691,9.0849581 5.04804597,9.15191524 5.12401816,9.20904381 Z" id="11"></path>
            </g>
        </g>
    </g>
</svg>